HIERARCHY
ROOT Hips
{
	OFFSET -3.958830 18.904000 13.208200
	CHANNELS 6 Xposition Yposition Zposition Zrotation Yrotation Xrotation 
	JOINT LHipJoint
	{
		OFFSET 0.000000 0.000000 0.000000
		CHANNELS 3 Zrotation Yrotation Xrotation
		JOINT LeftUpLeg
		{
			OFFSET 1.800000 -1.400000 0.085000
			CHANNELS 3 Zrotation Yrotation Xrotation
			JOINT LeftLeg
			{
				OFFSET 2.215000 -6.000000 0.000000
				CHANNELS 3 Zrotation Yrotation Xrotation
				JOINT LeftFoot
				{
					OFFSET 2.500000 -6.900000 0.000000
					CHANNELS 3 Zrotation Yrotation Xrotation
					JOINT LeftToeBase
					{
						OFFSET 0.200000 -0.500000 1.950000
						CHANNELS 3 Zrotation Yrotation Xrotation
						End Site
						{
							OFFSET 0.000000 0.000000 0.000000
						}
					}
				}
			}
		}
	}
	JOINT RHipJoint
	{
		OFFSET 0.000000 0.000000 0.000000
		CHANNELS 3 Zrotation Yrotation Xrotation
		JOINT RightUpLeg
		{
			OFFSET -1.800000 -1.400000 0.085000
			CHANNELS 3 Zrotation Yrotation Xrotation
			JOINT RightLeg
			{
				OFFSET -2.215000 -6.000000 0.000000
				CHANNELS 3 Zrotation Yrotation Xrotation
				JOINT RightFoot
				{
					OFFSET -2.500000 -6.900000 0.000000
					CHANNELS 3 Zrotation Yrotation Xrotation
					JOINT RightToeBase
					{
						OFFSET -0.200000 -0.500000 1.950000
						CHANNELS 3 Zrotation Yrotation Xrotation
						End Site
						{
							OFFSET 0.000000 0.000000 0.000000
						}
					}
				}
			}
		}
	}
	JOINT LowerBack
	{
		OFFSET 0.000000 0.000000 0.000000
		CHANNELS 3 Zrotation Yrotation Xrotation
		JOINT Spine
		{
			OFFSET -0.087000 1.940000 -0.288900
			CHANNELS 3 Zrotation Yrotation Xrotation
			JOINT Spine1
			{
				OFFSET 0.000000 1.950000 0.060000
				CHANNELS 3 Zrotation Yrotation Xrotation
				JOINT Neck
				{
					OFFSET 0.000000 0.000000 0.000000
					CHANNELS 3 Zrotation Yrotation Xrotation
					JOINT Neck1
					{
						OFFSET 0.000000 1.600000 0.340000
						CHANNELS 3 Zrotation Yrotation Xrotation
						JOINT Head
						{
							OFFSET 0.000000 1.667000 -0.240000
							CHANNELS 3 Zrotation Yrotation Xrotation
							End Site
							{
								OFFSET 0.000000 0.000000 0.000000
							}
						}
					}
				}
				JOINT LeftShoulder
				{
					OFFSET 0.000000 0.000000 0.000000
					CHANNELS 3 Zrotation Yrotation Xrotation
					JOINT LeftArm
					{
						OFFSET 2.700000 1.550000 -0.730000
						CHANNELS 3 Zrotation Yrotation Xrotation
						JOINT LeftForeArm
						{
							OFFSET 5.450000 0.000000 0.000000
							CHANNELS 3 Zrotation Yrotation Xrotation
							JOINT LeftHand
							{
								OFFSET 3.450000 0.000000 0.000000
								CHANNELS 3 Zrotation Yrotation Xrotation
								JOINT LeftHandIndex1
								{
									OFFSET 0.750000 0.000000 0.000000
									CHANNELS 3 Zrotation Yrotation Xrotation
									End Site
									{
										OFFSET 0.000000 0.000000 0.000000
									}
								}
							}
						}
					}
				}
				JOINT RightShoulder
				{
					OFFSET 0.000000 0.000000 0.000000
					CHANNELS 3 Zrotation Yrotation Xrotation
					JOINT RightArm
					{
						OFFSET -2.700000 1.550000 -0.730000
						CHANNELS 3 Zrotation Yrotation Xrotation
						JOINT RightForeArm
						{
							OFFSET -5.450000 0.000000 0.000000
							CHANNELS 3 Zrotation Yrotation Xrotation
							JOINT RightHand
							{
								OFFSET -3.450000 0.000000 0.000000
								CHANNELS 3 Zrotation Yrotation Xrotation
								JOINT RightHandIndex1
								{
									OFFSET -0.750000 0.000000 0.000000
									CHANNELS 3 Zrotation Yrotation Xrotation
									End Site
									{
										OFFSET 0.000000 0.000000 0.000000
									}
								}
							}
						}
					}
				}
			}
		}
	}
}
MOTION
Frames: 14
Frame Time: 0.016667
0.921350 16.259590 -4.382490 -13.699970 -29.906477 -3.408352 -15.068479 12.122905 3.180746 4.804329 -3.522841 -21.836058 -11.478810 14.631554 41.138841 0.154827 8.581280 1.537858 0.893650 0.632650 0.349660 18.352762 -8.684906 5.625336 -21.113871 12.127051 -26.372245 81.063537 -38.982234 31.407080 -3.095319 -11.441344 0.691029 0.314890 0.165180 0.272510 -3.986277 -2.596770 -9.707216 15.314964 -2.448244 25.826866 -8.221578 5.138743 26.123796 7.093792 -8.278529 -31.523416 -21.842916 1.235701 41.649335 16.897180 -9.869450 -34.103320 -24.743064 -40.517487 8.954018 -31.161324 -22.201227 -3.574305 8.401569 -15.269965 -2.862211 -2.997165 2.932051 1.113140 -0.386110 0.444530 0.490650 14.266455 52.014610 22.208133 17.585304 25.482484 -15.706624 -10.129893 25.655859 -2.701649 1.479597 -1.397888 -0.124720 0.584660 -0.133660 -0.008380 
0.788350 16.223530 -4.373440 -15.254624 -28.264295 -2.497371 -15.033403 11.845725 3.042100 7.476757 -3.761330 -21.331037 -12.309178 14.891181 40.638549 0.079103 8.805575 1.472732 0.859930 0.595950 0.311870 18.479511 -8.611137 5.711050 -26.640649 8.960467 -31.407322 89.072716 -43.653334 28.974503 -3.081977 -11.592222 0.661345 0.360010 0.268510 0.287860 -4.306709 -2.274646 -9.531504 18.527110 -3.348484 24.265779 -7.718676 3.092741 25.143171 6.004492 -7.670257 -27.725022 -19.124021 -0.479972 38.420700 13.838370 -10.706560 -30.538490 -20.519694 -41.060491 9.679841 -29.117769 -25.345138 -6.015535 4.868321 -25.613524 -3.371814 -2.942113 2.972120 1.015390 -0.263090 0.337200 0.489390 11.044383 50.137287 18.518069 17.043452 22.333656 -21.338953 -7.529592 37.481177 -4.114601 1.107496 -1.617771 -0.169790 0.608670 -0.084130 -0.008050 
0.647500 16.249730 -4.366700 -17.334312 -27.050227 -1.867809 -15.030119 11.779329 2.902775 10.788399 -3.462020 -20.566537 -12.659452 15.051805 39.974808 0.055471 8.948640 1.421803 0.776900 0.494240 0.274840 18.549273 -8.555137 5.729543 -30.560841 6.179945 -34.854516 96.527075 -47.349001 26.003433 -3.054800 -11.603581 0.685474 0.319710 0.325680 0.322300 -4.422186 -2.197014 -9.381017 21.904970 -4.441501 24.304414 -7.926161 1.783921 21.365555 5.656435 -7.034370 -24.089118 -17.399679 -1.483506 37.552939 10.891500 -11.224150 -27.567380 -17.792942 -40.127472 9.399910 -27.290556 -26.319360 -8.634739 -0.133263 -36.817503 -3.013441 -2.905819 3.051927 0.942550 -0.168060 0.267650 0.456170 8.069596 47.763601 15.104160 16.426029 19.314215 -22.416799 -2.785788 46.405025 -3.661663 1.016357 -1.695615 -0.183220 0.577000 -0.030250 -0.016700 
0.524770 16.343630 -4.367840 -19.645109 -26.378033 -1.946478 -15.058133 12.005908 2.795342 14.242210 -3.068789 -18.469053 -12.840560 14.590953 37.937326 -0.040251 8.812585 1.468454 0.715570 0.381780 0.315780 18.524881 -8.526954 5.659694 -32.439974 3.841132 -36.567633 100.150340 -50.944672 24.957969 -3.056993 -11.603378 0.705842 0.263110 0.315510 0.331960 -4.271225 -2.595663 -9.289305 24.763200 -6.131448 25.868517 -8.270988 0.367424 18.412150 6.041456 -5.904132 -22.481117 -15.841147 -2.137211 38.735146 7.858350 -11.019420 -26.037150 -14.848213 -40.082450 9.207533 -22.582354 -26.662707 -11.014025 -2.197464 -45.299490 -2.584491 -2.834993 3.112072 0.963670 -0.135360 0.252030 0.411430 3.672773 46.446844 12.802448 14.562482 16.842215 -23.669524 1.316021 54.595938 -2.641434 0.937340 -1.769944 -0.224330 0.554570 -0.009750 -0.073430 
0.406150 16.475410 -4.350410 -21.851770 -25.465734 -1.600241 -15.030152 12.122381 2.560869 16.929643 -2.581905 -16.115130 -12.065936 13.356010 34.795061 -0.201414 8.353163 1.649679 0.650330 0.296460 0.285020 18.577402 -8.644081 5.605396 -34.818384 1.328551 -38.083578 103.915767 -53.782222 23.307003 -3.019997 -11.550175 0.764356 0.234780 0.375100 0.343500 -4.348316 -2.568673 -9.085294 28.886468 -7.904592 25.732208 -9.323730 -0.916172 16.457837 6.122811 -5.011086 -20.537050 -13.942084 -3.702498 37.850896 5.665670 -11.551990 -24.276820 -11.222747 -40.110968 7.861400 -16.809822 -26.194920 -12.189667 -3.171805 -52.401865 -2.107052 -2.893378 3.186570 0.937590 -0.059930 0.198910 0.404660 -0.686578 44.692783 11.366384 12.872981 14.703646 -23.928286 6.724043 61.725656 -0.478129 0.852041 -1.885743 -0.265320 0.563330 0.024260 -0.087110 
0.269180 16.658190 -4.317670 -23.661259 -24.847920 -0.534043 -14.999900 12.206181 2.295566 18.988263 -1.992004 -14.136437 -10.732614 11.758589 30.663545 -0.384829 7.690081 1.899947 0.602990 0.222650 0.247300 18.638436 -8.766036 5.555102 -36.577814 -0.463567 -39.260615 106.371025 -55.890542 22.167427 -2.974867 -11.528984 0.781704 0.215290 0.440350 0.379510 -4.460081 -2.472303 -8.883309 32.321918 -9.112473 24.231894 -9.328272 -2.297539 14.615825 5.466153 -4.698498 -18.616622 -12.754481 -4.132394 36.381516 4.271840 -11.394030 -21.943190 -7.832833 -39.883694 6.563195 -12.443505 -25.789712 -11.479409 -5.561229 -57.133037 -0.551939 -3.009054 3.317365 0.893520 0.016290 0.136750 0.403580 -3.077924 42.926403 9.830831 10.095974 14.702029 -22.138904 11.308412 65.423258 2.636592 0.892372 -1.964147 -0.285990 0.538150 0.060680 -0.089620 
0.116310 16.902870 -4.283600 -25.039578 -25.095323 0.210566 -14.974226 12.284490 2.079594 20.902082 -1.325451 -11.141420 -9.640592 10.166085 25.204675 -0.513994 6.959116 2.188611 0.600190 0.232070 0.259660 18.672031 -8.899249 5.499337 -37.038696 -1.585273 -40.426880 107.084455 -58.728203 22.650579 -2.963116 -11.508122 0.809533 0.224260 0.459810 0.409200 -4.533209 -2.326607 -8.742964 34.352489 -9.801351 22.821471 -9.280615 -3.541073 13.842920 5.253492 -3.633555 -17.039161 -10.301684 -3.820271 36.246331 2.014540 -9.725880 -20.414430 -5.089052 -39.520675 5.966627 -8.485800 -24.625726 -10.847276 -2.421846 -59.254411 -1.505804 -3.147419 3.326526 0.851990 0.080110 0.126430 0.408300 -5.711498 40.994105 8.162437 8.756064 16.697492 -20.323632 10.741880 67.036376 2.941680 0.960568 -1.934503 -0.279810 0.517150 0.049740 -0.095530 
-0.017480 17.172210 -4.247460 -25.859749 -24.612312 0.241901 -14.919772 12.182972 1.836210 21.931185 -0.825653 -7.734277 -7.801347 8.407594 19.428770 -0.686648 6.306015 2.482535 0.610350 0.238460 0.253390 18.751471 -9.041010 5.523016 -37.642547 -2.181422 -40.092141 108.244021 -57.287532 21.347008 -2.923131 -11.514417 0.803159 0.279760 0.522260 0.411670 -4.756510 -1.800569 -8.560010 37.018889 -10.546921 20.820801 -9.923341 -4.521637 14.846923 4.845579 -3.448914 -15.651278 -9.119907 -4.305880 34.287414 1.386430 -9.797010 -19.645250 -2.097770 -38.849911 5.268282 -4.832673 -23.241305 -10.759696 -0.984234 -61.391053 -1.952201 -3.246254 3.345787 0.821210 0.142020 0.069790 0.417410 -7.869246 39.268568 7.221395 7.954644 17.331867 -19.763312 8.744873 68.466747 1.768524 0.937795 -1.935243 -0.322010 0.553710 0.070670 -0.103500 
-0.145940 17.470350 -4.205260 -26.585794 -24.334937 1.297530 -14.896137 12.047281 1.802342 22.868547 -0.583734 -5.557258 -5.901550 6.824018 13.132725 -0.690283 5.758808 2.746060 0.556290 0.155290 0.220010 18.802196 -9.021685 5.532667 -38.715292 -2.379052 -39.479910 108.000298 -55.679085 20.566934 -2.868822 -11.495458 0.800946 0.225350 0.545080 0.415920 -4.887870 -1.590733 -8.499340 40.585608 -11.475021 18.743381 -11.997133 -4.719648 13.825418 4.929481 -3.921985 -15.268612 -10.061387 -4.404144 34.336212 1.129550 -10.436740 -17.538440 -1.459609 -37.493728 5.498999 -3.439222 -21.844099 -9.843422 -4.923502 -63.960163 0.645084 -3.265430 3.436382 0.783560 0.158480 0.027530 0.410110 -8.707897 37.982606 6.852878 7.503124 17.551281 -18.206937 12.846467 69.873642 4.786777 1.006111 -1.994049 -0.320000 0.513220 0.084650 -0.092610 
-0.297850 17.770710 -4.184850 -26.167332 -24.653719 1.084598 -14.928148 11.893745 1.975185 23.845998 -0.546056 -3.250782 -5.599748 6.161664 8.458722 -0.635714 5.765281 2.773003 0.517040 0.080830 0.198410 18.803606 -8.859187 5.517711 -40.524499 -2.802951 -39.130888 108.600195 -55.348353 20.079997 -2.843572 -11.414151 0.812052 0.170510 0.536570 0.439150 -4.888555 -1.670348 -8.577845 41.518415 -12.012187 18.542495 -12.985730 -4.925072 13.259648 5.069328 -4.333939 -15.350674 -11.189720 -4.139923 35.441531 1.229390 -10.842360 -17.518770 -1.354056 -36.604629 5.991187 -2.833329 -20.120725 -9.689149 -3.979535 -65.028724 0.246476 -3.269349 3.443267 0.813750 0.144570 0.027890 0.386190 -9.102568 37.473573 6.706059 7.635298 18.046410 -17.625566 13.506835 70.178874 5.503510 1.038682 -1.955055 -0.316680 0.480690 0.121830 -0.103020 
-0.454150 18.051840 -4.169510 -26.032649 -25.080127 1.232555 -14.949391 11.664963 2.243279 25.723267 -0.674695 -2.276580 -7.060939 6.321528 6.235575 -0.566992 6.095864 2.700813 0.471800 0.019410 0.196560 18.822321 -8.828166 5.339644 -43.024750 -3.677260 -38.994620 106.838550 -59.374627 22.455073 -2.770032 -11.197517 0.903042 0.146700 0.564640 0.378770 -4.923193 -1.613415 -8.645705 42.219755 -12.288922 17.871095 -13.930357 -5.283241 13.202583 5.129436 -4.077070 -15.670771 -11.065908 -3.529609 36.544648 1.227640 -10.418130 -16.725610 -0.995480 -36.515719 6.485994 -2.141375 -18.486991 -9.813351 -2.869960 -64.608138 -0.169273 -3.246838 3.364141 0.846810 0.143000 0.007290 0.390360 -9.673815 37.029389 6.819612 9.307548 18.638518 -17.722534 11.792725 71.031883 4.164650 1.045217 -1.867854 -0.386080 0.539360 0.117840 -0.120830 
-0.617160 18.317670 -4.186060 -24.972456 -25.411657 0.304878 -14.969673 11.480472 2.266510 27.567043 -0.590186 -2.899827 -9.746266 7.695017 9.661454 -0.489069 6.562645 2.486764 0.561210 0.128760 0.255710 18.851727 -8.720936 5.448252 -45.251664 -3.861230 -38.712322 102.074276 -60.117551 25.634445 -2.738090 -11.069500 0.918393 0.199200 0.518440 0.376500 -4.995385 -1.452990 -8.720643 41.220874 -12.105377 18.388229 -13.766941 -5.429952 14.337381 4.767499 -3.804268 -15.768340 -10.465763 -3.736385 36.147695 1.774780 -10.364790 -17.551920 -0.077181 -37.110003 6.276012 -0.980683 -18.146951 -10.490388 0.625976 -62.699689 -1.926993 -3.186545 3.388182 0.838500 0.114080 0.042650 0.421500 -9.849123 37.174346 7.158298 11.058753 18.730361 -19.001207 6.073537 71.605725 -0.281411 1.024490 -1.850599 -0.348160 0.524460 0.045420 -0.111660 
-0.775480 18.572710 -4.240880 -22.920697 -25.796931 -2.112935 -15.050004 11.444928 2.352163 29.272671 -0.427285 -4.839093 -13.445176 10.732517 17.624179 -0.289831 7.567449 2.034965 0.612250 0.210810 0.267680 18.822168 -8.432070 5.619210 -47.838222 -3.716681 -37.482827 96.916796 -58.179336 28.094939 -2.724338 -11.046939 0.885180 0.211810 0.454470 0.374410 -4.898983 -1.741498 -8.891568 38.373251 -11.789074 21.456963 -12.671629 -5.272024 14.773717 4.228033 -3.682595 -16.338009 -10.803643 -3.850347 37.081556 3.337450 -10.855270 -18.344770 -0.241178 -37.808715 5.815508 0.790775 -17.873182 -11.185318 2.331339 -60.431255 -2.474094 -3.111825 3.474344 0.828210 0.057270 0.087590 0.433250 -8.608512 37.902427 8.149401 11.175484 16.463941 -20.907847 2.381186 73.304348 -3.433273 1.030741 -1.862777 -0.284390 0.479910 -0.000570 -0.084650 
-0.930090 18.814480 -4.300680 -20.838234 -26.301695 -4.746019 -15.193839 11.200708 2.795718 31.568416 -0.681255 -7.468838 -18.222770 15.397554 26.889832 0.060166 9.348219 1.337457 0.661620 0.286480 0.289200 18.754878 -8.012240 5.654102 -50.009854 -3.060636 -35.777660 91.786709 -54.921054 29.742227 -2.744906 -11.097104 0.830511 0.233060 0.405520 0.381200 -4.696189 -2.054417 -9.194800 35.170223 -11.217237 25.212795 -11.450897 -4.946907 15.318827 4.090372 -3.446094 -16.660315 -10.757439 -4.019123 38.238298 5.059510 -11.128210 -20.761590 0.021791 -37.870680 5.649849 1.251592 -16.958412 -12.472532 6.784329 -60.890960 -5.083997 -3.064195 3.445814 0.863430 0.001200 0.152840 0.437030 -8.553852 38.229632 8.675891 11.484975 14.795736 -22.818972 -3.902797 73.282745 -7.896116 1.005685 -1.760873 -0.245420 0.485740 -0.019050 -0.073210 
